<?xml version="1.0" encoding="utf-8"?>
<!-- Generator: Adobe Illustrator 27.5.0, SVG Export Plug-In . SVG Version: 6.00 Build 0)  -->
<svg version="1.1" id="OBJECTS" xmlns="http://www.w3.org/2000/svg" xmlns:xlink="http://www.w3.org/1999/xlink" x="0px" y="0px"
	 viewBox="0 0 97 94" style="enable-background:new 0 0 97 94;" xml:space="preserve">
<style type="text/css">
	.st0{fill:#FF9DB3;stroke:#000000;stroke-width:1.5;stroke-miterlimit:10;}
	.st1{fill:#EFDB00;stroke:#000000;stroke-width:1.5;stroke-miterlimit:10;}
	.st2{fill:#FFFFFF;stroke:#000000;stroke-width:1.5;stroke-miterlimit:10;}
	.st3{fill:#FF0000;}
</style>
<g>
	<g>
		<g>
			<path class="st0" d="M47.21,54.24l-0.76,14.07c-0.38,7.09,6.27,12.48,13.13,10.65l0,0c6.68-1.79,9.8-9.46,6.28-15.41L58.55,51.2
				L47.21,54.24z"/>
			<path class="st0" d="M42.08,35.12l-7.69-11.81c-3.88-5.95-0.81-13.95,6.05-15.79v0c6.68-1.79,13.22,3.29,13.14,10.2l-0.16,14.35
				L42.08,35.12z"/>
		</g>
		<g>
			<path class="st0" d="M60.63,47.41l14.04,1.23c7.07,0.62,12.69-5.85,11.08-12.76l0,0c-1.56-6.73-9.12-10.12-15.19-6.8l-12.59,6.89
				L60.63,47.41z"/>
			<path class="st0" d="M41.34,51.89l-12.06,7.29c-6.08,3.67-13.97,0.34-15.57-6.57v0c-1.56-6.73,3.73-13.1,10.64-12.79l14.34,0.64
				L41.34,51.89z"/>
		</g>
		<g>
			<path class="st0" d="M55.11,54.16l9.11,10.75c4.59,5.42,13.13,4.77,16.85-1.28l0,0c3.63-5.89,0.63-13.61-6.01-15.51l-13.8-3.96
				L55.11,54.16z"/>
			<path class="st0" d="M38.25,43.78l-13.7-3.3c-6.9-1.66-10.17-9.58-6.44-15.63l0,0c3.63-5.89,11.87-6.69,16.56-1.61l9.74,10.54
				L38.25,43.78z"/>
		</g>
		<g>
			<path class="st0" d="M59.49,38.45l10.48-9.41c5.28-4.74,4.39-13.26-1.75-16.81l0,0c-5.99-3.46-13.62-0.25-15.34,6.45l-3.56,13.9
				L59.49,38.45z"/>
			<path class="st0" d="M49.59,55.59l-2.91,13.79c-1.47,6.95-9.29,10.44-15.44,6.89l0,0c-5.99-3.46-7.02-11.67-2.08-16.51
				l10.26-10.04L49.59,55.59z"/>
		</g>
	</g>
	
		<ellipse transform="matrix(0.8194 -0.5732 0.5732 0.8194 -16.3807 36.4981)" class="st1" cx="49.73" cy="44.24" rx="21.98" ry="21.98"/>
	<g>
		<g>
			<g>
				<g>
					<path class="st2" d="M51.57,38.63c0,5.93,3.04,10.81,6.74,10.84h0.03c0.37,0,0.73-0.05,1.09-0.14c2.83-0.74,5.13-4.33,5.6-8.98
						l-4.16-2.01l3.84-3.37c-0.96-4.29-3.52-7.17-6.37-7.17c-0.08,0-0.16,0-0.24,0.01c-0.3,0.02-0.61,0.07-0.9,0.15
						C54.02,28.83,51.57,33.31,51.57,38.63z"/>
				</g>
				<path d="M54.36,38.63c0,4.66,2.35,8.58,3.96,10.84h0.03c0.37,0,0.73-0.05,1.09-0.14c2.83-0.74,5.13-4.33,5.6-8.98l-4.16-2.01
					l3.84-3.37c-0.96-4.29-3.52-7.17-6.37-7.17c-0.08,0-0.16,0-0.24,0.01C56.61,30.11,54.36,34.19,54.36,38.63z"/>
			</g>
			<g>
				<g>
					<path class="st2" d="M33.9,38.63c0,5.93,3.04,10.81,6.74,10.84h0.03c0.37,0,0.73-0.05,1.09-0.14c2.83-0.74,5.13-4.33,5.6-8.98
						l-4.16-2.01l3.84-3.37c-0.96-4.29-3.52-7.17-6.37-7.17c-0.08,0-0.16,0-0.24,0.01c-0.3,0.02-0.61,0.07-0.9,0.15
						C36.35,28.83,33.9,33.31,33.9,38.63z"/>
				</g>
				<path d="M37.05,38.63c0,4.66,1.99,8.58,3.59,10.84h0.03c0.37,0,0.73-0.05,1.09-0.14c2.83-0.74,5.13-4.33,5.6-8.98l-4.16-2.01
					l3.84-3.37c-0.96-4.29-3.52-7.17-6.37-7.17c-0.08,0-0.16,0-0.24,0.01C38.94,30.11,37.05,34.19,37.05,38.63z"/>
			</g>
			<path d="M47.12,50.11c0,0,0.01,0,0.01,0c0.33,0,0.59,0.3,0.59,0.63v5.17c0,2.05,0.88,2.96,2.26,2.96c1.24,0,2.16-0.88,2.16-2.96
				v-5.17c0-0.33,0.26-0.62,0.59-0.63c0,0,0.01,0,0.01,0c0,0,0.01,0,0.01,0c0.33,0,0.59,0.3,0.59,0.63v5.15
				c0,2.87-1.43,3.96-3.33,3.96c-2.01,0-3.51-1.17-3.51-4.02v-5.09c0-0.33,0.26-0.62,0.59-0.63C47.11,50.11,47.11,50.11,47.12,50.11
				z"/>
		</g>
		<path class="st3" d="M36.28,51.59c0,1.6-1.3,2.9-2.9,2.9c-1.6,0-2.9-1.3-2.9-2.9c0-1.6,1.3-2.9,2.9-2.9
			C34.98,48.68,36.28,49.98,36.28,51.59z"/>
		<circle class="st3" cx="65.96" cy="51.59" r="2.9"/>
	</g>
</g>
</svg>
